<?xml version="1.0" encoding="iso-8859-1"?>
<!-- Generator: Adobe Illustrator 19.0.0, SVG Export Plug-In . SVG Version: 6.00 Build 0)  -->
<svg version="1.1" id="Layer_1" xmlns="http://www.w3.org/2000/svg" xmlns:xlink="http://www.w3.org/1999/xlink" x="0px" y="0px"
	 viewBox="0 0 512 512" style="enable-background:new 0 0 512 512;" xml:space="preserve">
<path style="fill:#FFB656;" d="M412.673,155.695H99.327c-17.965,0-32.58,14.615-32.58,32.58v201.626v89.518
	c0,17.965,14.615,32.58,32.58,32.58h89.518h134.308h89.518c17.965,0,32.58-14.615,32.58-32.58v-89.518V188.274
	C445.253,170.31,430.638,155.695,412.673,155.695z"/>
<path style="fill:#FFA733;" d="M412.673,155.695h-33.854c17.965,0,32.58,14.615,32.58,32.58v201.626v89.518
	c0,17.965-14.615,32.58-32.58,32.58h33.854c17.965,0,32.58-14.615,32.58-32.58v-89.518V188.274
	C445.253,170.31,430.638,155.695,412.673,155.695z"/>
<path style="fill:#C6C5CB;" d="M256.001,201.205c-12.547,0-22.755-10.207-22.755-22.755V67.452h45.509V178.45
	C278.755,190.996,268.548,201.205,256.001,201.205z"/>
<path style="fill:#ACABB1;" d="M264.325,178.45V67.452h14.43V178.45c0,12.547-10.207,22.755-22.755,22.755
	c-2.524,0-4.945-0.43-7.215-1.192C257.803,196.987,264.325,188.473,264.325,178.45z"/>
<path style="fill:#FE5022;" d="M256.001,0.298c30.909,0,56.054,25.146,56.054,56.054s-25.146,56.054-56.054,56.054
	s-56.054-25.146-56.054-56.054S225.092,0.298,256.001,0.298z"/>
<path style="fill:#FF3501;" d="M267.527,26.605c23.281,20.33,25.682,55.811,5.351,79.092c-1.651,1.89-3.378,3.874-5.214,5.488
	c11.693-2.34,22.7-8.637,31.133-18.293c20.33-23.281,17.93-58.761-5.351-79.092c-21.39-18.68-53.072-18.155-73.846,0.109
	C236.1,10.607,253.902,14.707,267.527,26.605z"/>
<path style="fill:#FFA733;" d="M66.748,388.007l123.993,123.992H99.327c-17.965,0-32.58-14.615-32.58-32.58v-91.412H66.748z"/>
<g>
	<path style="fill:#CC7400;" d="M145.002,264.474H278.2c4.599,0,8.325-3.727,8.325-8.325c0-4.598-3.726-8.325-8.325-8.325H145.002
		c-4.598,0-8.325,3.727-8.325,8.325C136.677,260.746,140.405,264.474,145.002,264.474z"/>
	<path style="fill:#CC7400;" d="M322.6,264.474h44.399c4.599,0,8.325-3.727,8.325-8.325c0-4.598-3.726-8.325-8.325-8.325H322.6
		c-4.599,0-8.325,3.727-8.325,8.325C314.275,260.746,318.001,264.474,322.6,264.474z"/>
	<path style="fill:#CC7400;" d="M145.002,331.073h66.599c4.598,0,8.325-3.727,8.325-8.325c0-4.598-3.727-8.325-8.325-8.325h-66.599
		c-4.598,0-8.325,3.727-8.325,8.325C136.677,327.345,140.405,331.073,145.002,331.073z"/>
	<path style="fill:#CC7400;" d="M247.676,322.748c0,4.598,3.727,8.325,8.325,8.325h110.998c4.599,0,8.325-3.727,8.325-8.325
		c0-4.598-3.726-8.325-8.325-8.325H256.001C251.403,314.423,247.676,318.15,247.676,322.748z"/>
	<path style="fill:#CC7400;" d="M167.202,381.022h-22.2c-4.598,0-8.325,3.727-8.325,8.325c0,4.598,3.727,8.325,8.325,8.325h22.2
		c4.598,0,8.325-3.727,8.325-8.325C175.527,384.749,171.799,381.022,167.202,381.022z"/>
	<path style="fill:#CC7400;" d="M278.2,381.022h-66.599c-4.598,0-8.325,3.727-8.325,8.325c0,4.598,3.727,8.325,8.325,8.325H278.2
		c4.599,0,8.325-3.727,8.325-8.325C286.525,384.749,282.798,381.022,278.2,381.022z"/>
</g>
<path style="fill:#ED8800;" d="M160.627,388.007c16.604,0,30.114,13.51,30.114,30.114V512L66.748,388.007H160.627z"/>
<g>
</g>
<g>
</g>
<g>
</g>
<g>
</g>
<g>
</g>
<g>
</g>
<g>
</g>
<g>
</g>
<g>
</g>
<g>
</g>
<g>
</g>
<g>
</g>
<g>
</g>
<g>
</g>
<g>
</g>
</svg>
